{"accessors":[{"bufferView":0,"byteOffset":0,"componentType":5126,"count":4,"max":[29.357029000000004,80.0,-29.949236],"min":[-31.641287,0.0,-29.949236],"type":"VEC3"},{"bufferView":0,"byteOffset":48,"componentType":5126,"count":4,"max":[29.357029000000004,80.0,29.441626],"min":[29.357029,0.0,-29.949236],"type":"VEC3"},{"bufferView":0,"byteOffset":96,"componentType":5126,"count":4,"max":[29.357029,80.0,29.441626],"min":[-31.641287,0.0,29.441626],"type":"VEC3"},{"bufferView":0,"byteOffset":144,"componentType":5126,"count":4,"max":[-31.641287,80.0,29.441626],"min":[-31.641287,0.0,-29.949236],"type":"VEC3"},{"bufferView":0,"byteOffset":192,"componentType":5126,"count":4,"max":[29.357029000000004,0.0,29.441626],"min":[-31.641287,0.0,-29.949236],"type":"VEC3"},{"bufferView":0,"byteOffset":240,"componentType":5126,"count":4,"max":[29.357029000000004,80.0,29.441626],"min":[-31.641287,80.0,-29.949236],"type":"VEC3"},{"bufferView":1,"byteOffset":0,"componentType":5126,"count":4,"type":"VEC3"},{"bufferView":1,"byteOffset":48,"componentType":5126,"count":4,"type":"VEC3"},{"bufferView":1,"byteOffset":96,"componentType":5126,"count":4,"type":"VEC3"},{"bufferView":1,"byteOffset":144,"componentType":5126,"count":4,"type":"VEC3"},{"bufferView":1,"byteOffset":192,"componentType":5126,"count":4,"type":"VEC3"},{"bufferView":1,"byteOffset":240,"componentType":5126,"count":4,"type":"VEC3"},{"bufferView":2,"byteOffset":0,"componentType":5126,"count":4,"type":"VEC2"},{"bufferView":2,"byteOffset":32,"componentType":5126,"count":4,"type":"VEC2"},{"bufferView":2,"byteOffset":64,"componentType":5126,"count":4,"type":"VEC2"},{"bufferView":2,"byteOffset":96,"componentType":5126,"count":4,"type":"VEC2"},{"bufferView":2,"byteOffset":128,"componentType":5126,"count":4,"type":"VEC2"},{"bufferView":2,"byteOffset":160,"componentType":5126,"count":4,"type":"VEC2"},{"bufferView":3,"byteOffset":0,"componentType":5123,"count":6,"type":"SCALAR"},{"bufferView":3,"byteOffset":12,"componentType":5123,"count":6,"type":"SCALAR"},{"bufferView":3,"byteOffset":24,"componentType":5123,"count":6,"type":"SCALAR"},{"bufferView":3,"byteOffset":36,"componentType":5123,"count":6,"type":"SCALAR"},{"bufferView":3,"byteOffset":48,"componentType":5123,"count":6,"type":"SCALAR"},{"bufferView":3,"byteOffset":60,"componentType":5123,"count":6,"type":"SCALAR"}],"asset":{"generator":"Open CASCADE Technology [www.opencascade.com]","version":"2.0"},"bufferViews":[{"buffer":0,"byteLength":288,"byteOffset":0,"byteStride":12,"target":34962},{"buffer":0,"byteLength":288,"byteOffset":288,"byteStride":12,"target":34962},{"buffer":0,"byteLength":192,"byteOffset":576,"byteStride":8,"target":34962},{"buffer":0,"byteLength":72,"byteOffset":768,"target":34963}],"buffers":[{"byteLength":840,"uri":"cube.bin"}],"materials":[{"name":"mat_0","pbrMetallicRoughness":{"baseColorFactor":[0.6038273572921753,0.6038273572921753,0.6038273572921753,1.0]},"doubleSided":true}],"meshes":[{"name":"Body","primitives":[{"attributes":{"NORMAL":6,"POSITION":0,"TEXCOORD_0":12},"indices":18,"material":0,"mode":4},{"attributes":{"NORMAL":7,"POSITION":1,"TEXCOORD_0":13},"indices":19,"material":0,"mode":4},{"attributes":{"NORMAL":8,"POSITION":2,"TEXCOORD_0":14},"indices":20,"material":0,"mode":4},{"attributes":{"NORMAL":9,"POSITION":3,"TEXCOORD_0":15},"indices":21,"material":0,"mode":4},{"attributes":{"NORMAL":10,"POSITION":4,"TEXCOORD_0":16},"indices":22,"material":0,"mode":4},{"attributes":{"NORMAL":11,"POSITION":5,"TEXCOORD_0":17},"indices":23,"material":0,"mode":4}]}],"nodes":[{"mesh":0,"name":"Body"}],"scene":0,"scenes":[{"nodes":[0]}]}